<svg width="16" height="16" viewBox="0 0 16 16" fill="none" xmlns="http://www.w3.org/2000/svg">
<path d="M15.5434 11.3065L12.0434 9.80654C11.8939 9.74282 11.7277 9.7294 11.5699 9.76829C11.4121 9.80717 11.2712 9.89627 11.1684 10.0222L9.61844 11.9159C7.18586 10.769 5.22819 8.81131 4.08125 6.37873L5.975 4.82873C6.10115 4.72613 6.19043 4.58522 6.22934 4.42734C6.26825 4.26946 6.25466 4.1032 6.19062 3.95373L4.69062 0.453734C4.62035 0.292612 4.49605 0.161061 4.33917 0.0817648C4.18229 0.00246894 4.00266 -0.0196016 3.83125 0.019359L0.58125 0.769359C0.41599 0.807521 0.268545 0.900571 0.16298 1.03332C0.0574141 1.16607 -3.80691e-05 1.33069 1.89256e-08 1.5003C1.89256e-08 9.51592 6.49687 16.0003 14.5 16.0003C14.6697 16.0004 14.8343 15.943 14.9672 15.8374C15.1 15.7318 15.1931 15.5844 15.2312 15.419L15.9812 12.169C16.02 11.9968 15.9974 11.8164 15.9175 11.659C15.8376 11.5016 15.7053 11.377 15.5434 11.3065Z" fill="white"/>
</svg>
