<svg width="14" height="15" viewBox="0 0 14 15" fill="none" xmlns="http://www.w3.org/2000/svg">
<path opacity="0.7" d="M10.7692 6H3.07692V4.5H10.7692V6ZM10.7692 9H3.07692V7.5H10.7692V9ZM8.46154 12H3.07692V10.5H8.46154V12ZM6.92308 1.5C7.34615 1.5 7.69231 1.8375 7.69231 2.25C7.69231 2.6625 7.34615 3 6.92308 3C6.5 3 6.15385 2.6625 6.15385 2.25C6.15385 1.8375 6.5 1.5 6.92308 1.5ZM12.3077 1.5H9.09231C8.76923 0.63 7.92308 0 6.92308 0C5.92308 0 5.07692 0.63 4.75385 1.5H1.53846C0.692308 1.5 0 2.175 0 3V13.5C0 14.325 0.692308 15 1.53846 15H12.3077C13.1538 15 13.8462 14.325 13.8462 13.5V3C13.8462 2.175 13.1538 1.5 12.3077 1.5Z" fill="#A3A3A3"/>
</svg>
